<svg width="512" height="512" viewBox="0 0 512 512" fill="none" xmlns="http://www.w3.org/2000/svg">
<style>
  path { fill: #141413; }
  @media (prefers-color-scheme: dark) {
    path { fill: #FFF3D5; }
  }
</style>
<path fill-rule="evenodd" clip-rule="evenodd" d="M252.286 309.048C270.185 309.071 284.41 309.588 284.41 310.777C284.41 325.127 206.264 342 195.983 342C185.701 342 179.138 313.989 181.085 312.196C183.011 310.425 218.651 309.152 247.541 309.054L252.286 309.048ZM311.241 169C325.079 172.033 330.522 174.335 337.342 184.841C339.311 187.873 338.678 191.853 336.121 194.408C330.845 199.749 322.664 208.766 313.469 222.45L313.823 221.947C316.353 218.489 322.291 213.146 333.408 212.644L335.115 212.607C335.772 212.607 342.174 212.732 348.712 216.016L348.746 215.939C349.819 214.595 375.427 200.553 412 200.553C412 201.05 399.656 204.667 386.536 208.806L382.777 210C368.988 214.414 355.556 219.128 355.784 221.153C360.068 225.591 363.32 232.33 363.32 242.581C363.32 263.368 336.103 325.524 310.418 325.524C284.733 325.524 287.697 304.198 287.697 298.568C285.637 274.551 337.615 224.427 339.438 222.45C322.062 217.799 289.389 259.394 289.389 259.394C278.343 277.33 269.976 291.706 269.976 291.706C267.308 291.706 252.513 293.316 252.513 285.322C252.513 243.984 308.426 169 311.241 169ZM347.266 226.667C346.411 226.667 285.215 300.558 303.908 300.81C323.281 300.558 353.966 232.771 347.266 226.667ZM250.782 177.238C268.643 177.238 277.37 184.724 281.359 190.183C283.779 193.494 283.341 197.806 281.501 201.471C277.73 208.98 270.779 222.976 263.861 237.708C257.163 251.986 250.509 266.284 243.879 280.593C245.997 280.309 249.717 278.791 250.427 278.791C249.836 279.284 249.221 279.749 248.612 280.22C243.984 283.739 231.37 292.536 220.923 292.536C211.457 292.536 205.283 279.576 209.333 267.636C211.151 262.276 219.662 246.411 228.469 229.939C234.124 219.352 239.855 208.796 245.129 198.014C230.54 221.326 195.608 269.072 190.097 278.791C184.521 288.017 181.597 292.087 178.024 292.087C170.125 292.087 157.113 293.392 157.113 277.294C157.113 268.765 165.25 237.704 172.978 212.82C158.28 241.283 136.09 280.735 129.29 288.82C125.946 291.953 112.602 292.571 110.705 292.571C108.696 292.571 101 286.045 101 265.603C101 245.764 124.09 185.326 129.443 185.326C154.541 185.326 163.485 199.836 159.225 203.827C154.258 208.483 138.083 238.185 131.889 266.268C137.644 259.1 180.489 182.839 185.514 179.635C185.695 179.462 185.856 179.368 185.996 179.368C201.389 179.368 208.985 182.255 210.34 182.738C221.343 186.669 211.886 212.81 210.312 218.148C209.667 220.249 205.391 232.488 200.087 246.421C214.385 225.813 242.588 183.05 250.037 177.818C250.351 177.443 250.604 177.238 250.782 177.238Z"/>
</svg>
